<svg xmlns="http://www.w3.org/2000/svg" width="24" height="24" viewBox="0 0 24 24" fill="none">
  <path d="M11.9904 19.708C11.7763 19.708 11.5612 19.6695 11.3452 19.5926C11.1291 19.5157 10.9391 19.3952 10.775 19.2311L9.33848 17.9253C7.56539 16.3086 5.98238 14.7205 4.58943 13.1609C3.19648 11.6013 2.5 9.93045 2.5 8.14841C2.5 6.7292 2.97852 5.54106 3.93558 4.58401C4.89263 3.62696 6.08076 3.14844 7.49998 3.14844C8.30638 3.14844 9.10285 3.33434 9.8894 3.70614C10.6759 4.07794 11.3795 4.68179 12 5.51769C12.6205 4.68179 13.324 4.07794 14.1105 3.70614C14.8971 3.33434 15.6936 3.14844 16.5 3.14844C17.9192 3.14844 19.1073 3.62696 20.0644 4.58401C21.0214 5.54106 21.5 6.7292 21.5 8.14841C21.5 9.94968 20.7916 11.6391 19.375 13.2167C17.9583 14.7942 16.3788 16.3689 14.6365 17.9407L13.2154 19.2311C13.0513 19.3952 12.8596 19.5157 12.6404 19.5926C12.4211 19.6695 12.2045 19.708 11.9904 19.708Z" fill="#FF0000"/>
</svg>